<?xml version="1.0" standalone="no"?>
<!DOCTYPE svg PUBLIC "-//W3C//DTD SVG 20010904//EN"
 "http://www.w3.org/TR/2001/REC-SVG-20010904/DTD/svg10.dtd">
<svg version="1.0" xmlns="http://www.w3.org/2000/svg"
 width="32px" height="32px" viewBox="0 0 435.000000 600.000000"
 preserveAspectRatio="xMidYMid meet">

<g transform="translate(0.000000,600.000000) scale(0.100000,-0.100000)"
fill="#000000" stroke="none">
<path d="M2200 5960 c-26 -50 -49 -52 -92 -5 -32 34 -34 35 -56 20 -12 -9 -30
-33 -40 -53 -15 -33 -22 -37 -57 -39 -119 -8 -142 -14 -156 -40 -7 -13 -30
-32 -51 -40 -25 -10 -38 -22 -38 -33 0 -28 11 -31 100 -19 70 8 86 8 106 -6
28 -18 31 -55 7 -77 -58 -51 -322 -171 -414 -189 -98 -18 -149 -49 -191 -112
-30 -44 -38 -67 -43 -123 -7 -78 -6 -80 67 -138 70 -56 97 -60 183 -31 83 29
134 31 225 9 137 -32 213 -43 257 -37 38 5 48 3 59 -12 22 -29 17 -50 -36
-171 -53 -122 -190 -326 -301 -450 -32 -34 -76 -87 -99 -118 -35 -47 -72 -75
-217 -167 l-175 -111 -152 101 c-84 56 -172 122 -197 147 -50 51 -154 104
-205 104 -19 0 -52 -7 -75 -17 -36 -14 -52 -32 -114 -127 -40 -61 -145 -239
-235 -396 -143 -250 -165 -295 -185 -375 -12 -49 -32 -115 -43 -145 -24 -66
-35 -138 -26 -174 5 -20 12 -26 34 -26 44 0 163 67 223 125 58 56 80 61 110
27 9 -11 25 -90 41 -206 29 -204 42 -247 111 -364 25 -42 45 -80 45 -85 0 -16
105 -181 136 -214 38 -40 57 -41 90 -6 37 40 57 123 52 210 -6 85 -24 113 -95
145 -51 23 -79 60 -85 113 -3 22 -19 101 -37 175 -38 161 -71 341 -71 386 0
56 46 59 116 9 27 -19 101 -66 165 -105 65 -38 148 -98 185 -132 64 -58 91
-74 181 -108 41 -16 76 -55 188 -216 102 -146 224 -274 398 -419 108 -89 118
-101 112 -124 -19 -74 -21 -132 -9 -244 19 -186 107 -416 246 -644 48 -78 49
-83 38 -117 -6 -20 -24 -45 -40 -56 -26 -18 -44 -20 -225 -20 -108 0 -250 5
-316 11 -135 13 -287 3 -465 -32 -123 -23 -224 -76 -224 -116 0 -41 148 -110
256 -120 60 -6 64 -4 86 22 65 78 52 73 209 77 309 6 436 -7 699 -73 63 -16
129 -29 147 -29 33 0 61 26 95 89 29 53 53 40 115 -64 70 -119 74 -130 63
-161 -24 -61 -169 -203 -368 -356 -69 -54 -114 -97 -136 -132 -21 -32 -68 -80
-126 -126 -103 -82 -150 -139 -150 -181 0 -25 5 -28 50 -38 112 -24 299 -7
339 31 23 20 25 31 21 95 -2 40 0 43 54 79 42 28 62 49 77 82 38 88 310 331
445 400 23 11 48 32 57 46 32 48 19 137 -38 259 -20 43 -27 73 -26 116 1 100
40 163 145 233 259 174 407 344 455 523 14 53 19 60 43 63 42 5 49 -21 31
-113 -29 -159 -25 -233 17 -262 26 -18 26 -22 -11 -100 -35 -75 -39 -114 -18
-158 11 -23 21 -30 43 -30 28 0 29 2 52 95 12 52 36 124 53 160 17 36 35 96
41 135 6 38 16 75 22 82 27 33 59 2 83 -79 18 -65 35 -83 68 -74 24 6 24 7 31
195 5 159 4 196 -9 236 -9 26 -14 53 -12 60 3 7 35 26 72 43 142 67 244 180
296 328 30 86 36 250 14 384 -9 58 -17 143 -17 190 0 101 21 166 114 363 52
109 60 133 52 155 -6 16 -18 28 -31 30 -24 4 -39 -14 -138 -173 -61 -97 -84
-117 -112 -94 -11 10 -14 25 -10 61 8 67 43 141 108 229 109 147 156 253 123
280 -15 12 -23 7 -76 -51 -33 -36 -92 -108 -132 -160 -39 -52 -79 -96 -87 -98
-8 -1 -23 4 -34 12 -52 38 49 224 214 394 40 41 48 63 35 96 -12 31 -43 15
-137 -69 -83 -74 -103 -99 -162 -200 -37 -64 -74 -137 -81 -162 -29 -95 -15
-258 40 -486 55 -228 55 -451 0 -599 -58 -155 -215 -291 -369 -319 -55 -11
-68 -10 -79 2 -7 8 -34 68 -60 134 -30 76 -67 147 -101 195 -69 97 -287 310
-392 384 -45 31 -111 89 -147 128 -79 87 -219 306 -247 385 -36 105 -38 264
-4 277 9 3 41 -6 73 -20 31 -14 81 -34 109 -44 29 -11 72 -32 95 -48 94 -63
147 -88 165 -76 29 18 26 48 -8 103 -31 49 -32 53 -15 69 14 14 36 17 121 17
101 0 104 1 135 30 25 24 30 36 28 65 -4 43 -30 50 -79 21 -46 -28 -80 -26
-154 9 -65 31 -125 88 -125 118 0 44 43 52 142 27 66 -18 94 -13 103 15 8 26
-13 55 -72 100 -87 65 -96 122 -20 128 31 3 43 -3 80 -37 24 -23 49 -41 54
-41 20 0 55 48 49 67 -8 24 -94 99 -168 147 -86 55 -126 117 -97 152 10 12 24
15 52 11 37 -5 52 -14 161 -92 39 -28 57 -35 85 -33 29 2 37 8 39 25 5 32 -41
92 -104 137 -58 42 -117 117 -112 143 6 33 33 38 112 18 l76 -19 25 24 c14 13
25 34 25 47 0 27 -26 45 -100 68 -30 10 -61 22 -67 28 -20 15 -15 45 10 61 33
22 73 22 156 1 72 -19 73 -19 87 0 18 25 4 48 -58 92 -36 26 -61 35 -124 43
-43 6 -94 16 -112 21 -42 14 -92 64 -92 94 0 41 18 46 138 36 101 -8 115 -12
149 -38 48 -38 72 -46 89 -32 17 14 18 60 2 80 -16 19 -115 92 -148 110 -14 7
-47 16 -75 20 -55 8 -209 89 -225 119 -7 13 -5 24 8 39 17 22 60 28 137 19 29
-3 30 -1 30 36 0 31 -6 43 -28 60 -25 18 -45 21 -166 24 l-138 4 -52 48 c-51
49 -86 65 -171 77 -39 5 -57 17 -139 95 -51 48 -102 88 -112 88 -12 0 -26 -15
-39 -40z"/>
</g>
</svg>
