<?xml version="1.0" encoding="UTF-8"?>
<svg xmlns="http://www.w3.org/2000/svg" xmlns:xlink="http://www.w3.org/1999/xlink" width="16px" height="16px" viewBox="0 0 16 15" version="1.1">
<g id="surface1">
<path style=" stroke:none;fill-rule:nonzero;fill:rgb(0%,0%,0%);fill-opacity:1;" d="M 6.992188 0.398438 C 6.457031 0.425781 5.789062 0.515625 5.671875 0.574219 C 5.605469 0.609375 5.601562 0.703125 5.601562 4 C 5.601562 5.945312 5.617188 7.605469 5.636719 7.898438 C 5.726562 9.011719 6.101562 9.824219 6.910156 10.621094 C 7.890625 11.582031 9.03125 12.039062 10.476562 12.035156 C 11.613281 12.03125 12.375 11.820312 13.277344 11.253906 C 14.367188 10.566406 15.175781 9.371094 15.277344 8.300781 C 15.296875 8.09375 15.316406 6.5625 15.332031 4.894531 L 15.355469 1.859375 L 15.136719 1.769531 C 13.925781 1.257812 12.324219 0.75 11.789062 0.707031 L 11.636719 0.699219 L 11.617188 4.472656 C 11.601562 7.996094 11.597656 8.257812 11.53125 8.382812 C 11.347656 8.75 10.886719 9.03125 10.472656 9.027344 C 10.105469 9.023438 9.6875 8.796875 9.496094 8.492188 L 9.390625 8.320312 L 9.363281 7.351562 C 9.351562 6.820312 9.335938 5.03125 9.335938 3.371094 L 9.332031 0.359375 L 8.410156 0.363281 C 7.902344 0.363281 7.265625 0.378906 6.992188 0.398438 Z M 6.992188 0.398438 "/>
<path style=" stroke:none;fill-rule:nonzero;fill:rgb(0%,0%,0%);fill-opacity:1;" d="M 4.09375 0.863281 C 3.226562 1.082031 2.054688 1.472656 1.359375 1.777344 L 0.984375 1.945312 L 1 5.148438 C 1.015625 8.574219 1.015625 8.550781 1.222656 9.296875 C 1.433594 10.066406 1.800781 10.800781 2.316406 11.484375 C 2.632812 11.90625 3.472656 12.707031 3.960938 13.050781 C 4.9375 13.738281 6.070312 14.277344 7.257812 14.617188 C 7.878906 14.796875 8.089844 14.808594 8.703125 14.691406 C 10.808594 14.292969 12.527344 13.511719 13.691406 12.425781 C 14.113281 12.035156 14.367188 11.722656 14.664062 11.21875 C 14.914062 10.796875 14.996094 10.59375 14.960938 10.503906 C 14.917969 10.40625 14.800781 10.5 14.511719 10.859375 C 13.816406 11.734375 12.664062 12.417969 11.550781 12.617188 C 11.152344 12.6875 9.574219 12.683594 9.128906 12.613281 C 8.730469 12.550781 8.058594 12.347656 7.660156 12.175781 C 6.460938 11.664062 5.554688 10.683594 5.109375 9.421875 C 4.820312 8.609375 4.839844 8.867188 4.800781 4.792969 C 4.78125 2.777344 4.753906 1.042969 4.742188 0.9375 C 4.71875 0.761719 4.710938 0.75 4.617188 0.753906 C 4.558594 0.753906 4.328125 0.804688 4.09375 0.863281 Z M 4.09375 0.863281 "/>
</g>
</svg>
