<?xml version="1.0" encoding="UTF-8"?>
<svg xmlns="http://www.w3.org/2000/svg" xmlns:xlink="http://www.w3.org/1999/xlink" width="16px" height="16px" viewBox="0 0 16 16" version="1.1">
<defs>
<linearGradient id="linear0" gradientUnits="userSpaceOnUse" x1="9.858" y1="9.858" x2="38.141998" y2="38.141998" gradientTransform="matrix(0.333333,0,0,0.333333,0,0)">
<stop offset="0" style="stop-color:rgb(20%,74.509804%,94.117647%);stop-opacity:1;"/>
<stop offset="1" style="stop-color:rgb(3.921569%,52.156863%,85.098039%);stop-opacity:1;"/>
</linearGradient>
<filter id="alpha" filterUnits="objectBoundingBox" x="0%" y="0%" width="100%" height="100%">
  <feColorMatrix type="matrix" in="SourceGraphic" values="0 0 0 0 1 0 0 0 0 1 0 0 0 0 1 0 0 0 1 0"/>
</filter>
<mask id="mask0">
  <g filter="url(#alpha)">
<rect x="0" y="0" width="16" height="16" style="fill:rgb(0%,0%,0%);fill-opacity:0.0509804;stroke:none;"/>
  </g>
</mask>
<clipPath id="clip1">
  <rect x="0" y="0" width="16" height="16"/>
</clipPath>
<g id="surface5" clip-path="url(#clip1)">
<path style=" stroke:none;fill-rule:nonzero;fill:rgb(0%,0%,0%);fill-opacity:1;" d="M 3.371094 7.820312 C 6.089844 6.589844 9.285156 5.253906 9.777344 5.0625 C 10.859375 4.632812 11.332031 5.070312 11.257812 5.765625 C 11.167969 6.617188 10.734375 9.09375 10.46875 10.871094 C 10.316406 11.910156 9.753906 12.226562 9.117188 11.824219 C 8.636719 11.519531 6.980469 10.433594 6.542969 10.0625 C 6.246094 9.8125 6.039062 9.527344 6.25 9.238281 C 6.3125 9.15625 6.46875 8.984375 6.558594 8.902344 C 6.996094 8.476562 6.9375 8.382812 6.40625 8.761719 C 6.34375 8.808594 5.976562 9.074219 5.824219 9.175781 C 5.453125 9.421875 5.113281 9.4375 4.539062 9.238281 C 4.066406 9.078125 3.613281 8.957031 3.328125 8.832031 C 2.929688 8.660156 2.78125 8.089844 3.371094 7.820312 Z M 3.371094 7.820312 "/>
</g>
<mask id="mask1">
  <g filter="url(#alpha)">
<rect x="0" y="0" width="16" height="16" style="fill:rgb(0%,0%,0%);fill-opacity:0.0705882;stroke:none;"/>
  </g>
</mask>
<clipPath id="clip2">
  <rect x="0" y="0" width="16" height="16"/>
</clipPath>
<g id="surface8" clip-path="url(#clip2)">
<path style=" stroke:none;fill-rule:nonzero;fill:rgb(0%,0%,0%);fill-opacity:1;" d="M 3.613281 7.863281 C 6.136719 6.734375 9.238281 5.441406 9.695312 5.257812 C 10.78125 4.820312 11.183594 5.082031 11.066406 5.929688 C 10.957031 6.714844 10.570312 9.148438 10.300781 10.777344 C 10.140625 11.738281 9.675781 11.949219 9.070312 11.558594 C 8.691406 11.3125 7.164062 10.304688 6.792969 10.011719 C 6.503906 9.785156 6.207031 9.523438 6.554688 9.148438 C 6.671875 9.019531 7.3125 8.402344 7.789062 7.941406 C 8.066406 7.675781 7.96875 7.542969 7.632812 7.773438 C 7.019531 8.195312 6.015625 8.859375 5.835938 8.980469 C 5.492188 9.210938 5.171875 9.265625 4.613281 9.089844 C 4.175781 8.953125 3.75 8.816406 3.527344 8.730469 C 3.03125 8.539062 3.023438 8.125 3.613281 7.863281 Z M 3.613281 7.863281 "/>
</g>
</defs>
<g id="surface1">
<path style=" stroke:none;fill-rule:nonzero;fill:url(#linear0);" d="M 14.667969 8 C 14.667969 11.683594 11.683594 14.667969 8 14.667969 C 4.316406 14.667969 1.332031 11.683594 1.332031 8 C 1.332031 4.316406 4.316406 1.332031 8 1.332031 C 11.683594 1.332031 14.667969 4.316406 14.667969 8 Z M 14.667969 8 "/>
<use xlink:href="#surface5" mask="url(#mask0)"/>
<use xlink:href="#surface8" mask="url(#mask1)"/>
<path style=" stroke:none;fill-rule:nonzero;fill:rgb(100%,100%,100%);fill-opacity:1;" d="M 3.851562 7.90625 C 6.179688 6.878906 9.195312 5.632812 9.613281 5.457031 C 10.703125 5.003906 11.039062 5.09375 10.871094 6.09375 C 10.753906 6.816406 10.40625 9.199219 10.128906 10.6875 C 9.964844 11.566406 9.597656 11.671875 9.023438 11.289062 C 8.742188 11.105469 7.34375 10.179688 7.039062 9.960938 C 6.761719 9.761719 6.378906 9.523438 6.859375 9.054688 C 7.027344 8.886719 8.148438 7.816406 9.023438 6.984375 C 9.136719 6.875 8.992188 6.695312 8.859375 6.785156 C 7.683594 7.5625 6.050781 8.648438 5.84375 8.789062 C 5.53125 9 5.230469 9.097656 4.6875 8.941406 C 4.28125 8.824219 3.882812 8.6875 3.726562 8.632812 C 3.128906 8.425781 3.269531 8.160156 3.851562 7.90625 Z M 3.851562 7.90625 "/>
</g>
</svg>
